<svg width="31" height="33" viewBox="0 0 31 33" fill="none" xmlns="http://www.w3.org/2000/svg">
<path fill-rule="evenodd" clip-rule="evenodd" d="M18.6818 19.8337C20.4638 19.6497 22.9794 18.9896 25.0771 17.5823C27.2757 16.1072 28.9881 13.8383 28.9881 10.4019C28.9881 6.85883 27.7705 4.7358 26.3294 3.4874C24.8618 2.21599 23.094 1.79321 21.9417 1.79321H2.47113C1.8414 1.79321 1.52791 2.57008 1.97576 3.0208L18.6818 19.8337Z" fill="#EA0022"/>
<path d="M25.0771 17.5823C22.9794 18.9896 20.4638 19.6497 18.6818 19.8337L1.97576 3.0208C1.52791 2.57008 1.8414 1.79321 2.47113 1.79321H21.9417C23.094 1.79321 24.8618 2.21599 26.3294 3.4874C27.7705 4.7358 28.9881 6.85883 28.9881 10.4019C28.9881 13.8383 27.2757 16.1072 25.0771 17.5823Z" fill="#EA0022"/>
<path d="M25.0781 18.2999C22.9804 19.7073 20.4648 20.3674 18.6828 20.5513L2.29254 3.33252L15.6798 14.1906C18.6828 16.6024 21.712 16.3882 24.5666 15.0205C26.0716 14.2995 27.8126 12.9475 29.1405 9.31236C29.3058 10.5113 29.9192 14.9564 25.0781 18.2999Z" fill="#9B0003"/>
<path fill-rule="evenodd" clip-rule="evenodd" d="M15.6017 31.2063L4.10752 20.0485C3.65901 19.6131 2.91663 19.9368 2.91663 20.5677V30.4889C2.91663 30.8851 3.2321 31.2063 3.62127 31.2063H15.6017Z" fill="#BDBDBD"/>
<path d="M4.10752 20.0485L15.6017 31.2063H3.62127C3.2321 31.2063 2.91663 30.8851 2.91663 30.4889V20.5677C2.91663 19.9368 3.65901 19.6131 4.10752 20.0485Z" fill="#BDBDBD"/>
<path opacity="0.58" d="M3.94814 27.8644L3.94819 25.9087C3.99003 27.5988 4.30741 28.74 5.18986 29.2383C6.78084 30.1021 6.1798 30.2101 4.42965 30.1021C3.90034 30.0695 3.9698 28.7394 3.94814 27.8644Z" fill="white"/>
<path d="M9.72514 25.5278C13.4111 30.4438 9.20297 31.6727 6.63818 31.6727H16.1755L9.72514 25.5278Z" fill="#797979"/>
<path opacity="0.58" d="M22.1089 2.63574H16.928C20.1008 2.63574 22.9384 3.23176 23.9156 4.92378C24.9006 7.15519 27.247 7.0234 26.2952 5.19297C25.3433 3.36254 23.7515 2.63574 22.1089 2.63574Z" fill="white"/>
<path fill-rule="evenodd" clip-rule="evenodd" d="M0.984907 4.04141C-0.358657 2.68926 0.581801 0.358643 2.47101 0.358643H21.9415C23.3728 0.358643 25.4806 0.868477 27.2426 2.39489C29.0311 3.94432 30.3972 6.48433 30.3972 10.4021C30.3972 14.4266 28.3515 17.1039 25.8525 18.7805C23.9402 20.0635 21.7471 20.7761 19.9415 21.1017L27.7484 28.9585C29.092 30.3106 28.1515 32.6413 26.2623 32.6413H3.62086C2.45337 32.6413 1.50694 31.6777 1.50694 30.4891V20.5679C1.50694 18.6751 3.7341 17.7041 5.07963 19.0102L17.6435 31.2065H26.2623C26.892 31.2065 27.2055 30.4296 26.7577 29.9789L0.984907 4.04141ZM25.077 17.5825C22.9793 18.9899 20.4637 19.65 18.6817 19.8339L1.97564 3.02102C1.52778 2.57029 1.84128 1.79343 2.47101 1.79343H21.9415C23.0939 1.79343 24.8617 2.2162 26.3293 3.48762C27.7704 4.73601 28.988 6.85904 28.988 10.4021C28.988 13.8385 27.2756 16.1074 25.077 17.5825ZM15.6013 31.2065L4.10712 20.0486C3.65861 19.6133 2.91622 19.9369 2.91622 20.5679V30.4891C2.91622 30.8853 3.2317 31.2065 3.62086 31.2065H15.6013Z" fill="black"/>
<path fill-rule="evenodd" clip-rule="evenodd" d="M0.737406 4.29656C-0.830084 2.71905 0.267115 0 2.47119 0H21.9417C23.4428 0 25.6355 0.531599 27.4711 2.12176C29.3465 3.74645 30.7497 6.3907 30.7497 10.4022C30.7497 14.5737 28.6206 17.3531 26.0465 19.0801C24.3153 20.2416 22.3652 20.9449 20.6621 21.3224L27.9963 28.7034C29.5638 30.281 28.4665 33 26.2625 33H3.62104C2.25897 33 1.1548 31.8758 1.1548 30.4891V20.5679C1.1548 18.3597 3.75316 17.2268 5.32294 18.7507L17.7847 30.8478H26.2625C26.5773 30.8478 26.7341 30.4594 26.5102 30.234L0.737406 4.29656ZM14.7214 30.8478L3.86417 20.3083C3.63992 20.0906 3.26872 20.2524 3.26872 20.5679V30.4891C3.26872 30.6872 3.42646 30.8478 3.62104 30.8478H14.7214ZM18.8105 19.459C20.5375 19.2568 22.9068 18.6091 24.8833 17.283C27.0069 15.8583 28.6358 13.6915 28.6358 10.4022C28.6358 6.95277 27.4554 4.93399 26.1012 3.76085C24.7071 2.55318 23.0244 2.15217 21.9417 2.15217H2.47119C2.15633 2.15217 1.99958 2.54061 2.22351 2.76597L18.8105 19.459Z" fill="black"/>
</svg>
